<?xml version="1.0" encoding="iso-8859-1"?>
<!-- Generator: Adobe Illustrator 19.0.0, SVG Export Plug-In . SVG Version: 6.00 Build 0)  -->
<svg version="1.1" id="Layer_1" xmlns="http://www.w3.org/2000/svg" xmlns:xlink="http://www.w3.org/1999/xlink" x="0px" y="0px"
	 viewBox="0 0 512 512" style="enable-background:new 0 0 512 512;" xml:space="preserve">
<g>
	<g>
		<path d="M437.019,74.981C388.668,26.629,324.38,0,256,0S123.332,26.629,74.981,74.981C26.629,123.332,0,187.62,0,256
			s26.629,132.668,74.981,181.02C123.332,485.371,187.62,512,256,512s132.668-26.629,181.019-74.98
			C485.371,388.668,512,324.38,512,256S485.371,123.332,437.019,74.981z M125.366,53.817c22.511,30.6,55.485,92.635,57.059,194.579
			H15.34C17.883,166.893,61.117,95.472,125.366,53.817z M15.34,263.604h167.085c-1.575,101.97-34.575,164.011-57.059,194.579
			C61.117,416.528,17.883,345.107,15.34,263.604z M248.396,496.66c-39.829-1.242-77.244-12.205-109.961-30.587
			c23.677-32.619,57.626-97.495,59.2-202.469h50.761V496.66z M248.396,248.396h-50.761c-1.576-104.949-35.498-169.816-59.2-202.469
			c32.717-18.382,70.133-29.345,109.961-30.587V248.396z M496.66,248.396H329.573c1.575-101.947,34.549-163.979,57.06-194.579
			C450.883,95.472,494.118,166.893,496.66,248.396z M263.604,15.34c39.829,1.242,77.244,12.205,109.961,30.587
			c-23.703,32.652-57.626,97.518-59.201,202.469h-50.76V15.34z M263.605,496.659V263.604h50.759
			c1.576,104.972,35.525,169.849,59.201,202.469C340.848,484.455,303.432,495.417,263.605,496.659z M386.633,458.183
			c-22.484-30.568-55.486-92.611-57.06-194.579H496.66C494.118,345.107,450.883,416.528,386.633,458.183z"/>
	</g>
</g>
<g>
	<g>
		<path d="M68.404,359.415l-13.311,7.355c15.484,28.029,36.267,52.122,61.769,71.608l9.233-12.085
			C102.275,408.092,82.865,385.592,68.404,359.415z"/>
	</g>
</g>
<g>
	<g>
		<path d="M436.285,114.168l-11.946,9.411c14.295,18.147,25.487,38.321,33.267,59.961l14.311-5.144
			C463.582,155.212,451.594,133.603,436.285,114.168z"/>
	</g>
</g>
<g>
	<g>
		<path d="M414.585,90.274L404.07,101.26c4.41,4.223,8.695,8.689,12.733,13.276l11.414-10.049
			C423.894,99.576,419.309,94.794,414.585,90.274z"/>
	</g>
</g>
<g>
</g>
<g>
</g>
<g>
</g>
<g>
</g>
<g>
</g>
<g>
</g>
<g>
</g>
<g>
</g>
<g>
</g>
<g>
</g>
<g>
</g>
<g>
</g>
<g>
</g>
<g>
</g>
<g>
</g>
</svg>
